<svg xmlns="http://www.w3.org/2000/svg" version="1.1" xmlns:xlink="http://www.w3.org/1999/xlink" xmlns:svgjs="http://svgjs.dev/svgjs" width="128" height="128" viewBox="0 0 128 128"><g transform="matrix(0.8046875,0,0,0.8046875,12.220553693437502,12.221578124999994)"><svg viewBox="0 0 96 96" data-background-color="#122023" preserveAspectRatio="xMidYMid meet" height="128" width="128" xmlns="http://www.w3.org/2000/svg" xmlns:xlink="http://www.w3.org/1999/xlink"><g id="tight-bounds" transform="matrix(1,0,0,1,0.2604548099999988,0.25950000000000273)"><svg viewBox="0 0 95.47909038 95.481" height="95.481" width="95.47909038"><g><svg viewBox="0 0 95.47909038 95.481" height="95.481" width="95.47909038"><g><svg viewBox="0 0 95.47909038 95.481" height="95.481" width="95.47909038"><g id="textblocktransform"><svg viewBox="0 0 95.47909038 95.481" height="95.481" width="95.47909038" id="textblock"><g><svg viewBox="0 0 95.47909038 95.481" height="95.481" width="95.47909038"><g><svg viewBox="0 0 95.47909038 95.481" height="95.481" width="95.47909038"><g><svg version="1.1" xmlns="http://www.w3.org/2000/svg" xmlns:xlink="http://www.w3.org/1999/xlink" x="0" y="0" viewBox="0 0 99.998 100" enable-background="new 0 0 99.998 100" xml:space="preserve" id="icon-0" width="95.47909038" height="95.481" class="icon-icon-0" data-fill-palette-color="accent"><path fill="#e0dbc6" d="M83.999 71.808L81.06 71.807 81.064 65.928 84.002 65.929A4.416 4.416 0 0 0 88.412 61.518V49.759A4.417 4.417 0 0 0 84 45.348H81.06V39.469H83.999C89.674 39.469 94.29 44.086 94.29 49.759V61.518C94.29 67.191 89.674 71.808 83.999 71.808" data-fill-palette-color="accent"></path><path fill="#e0dbc6" d="M0 92.65C0 96.713 3.262 100 7.294 100H92.703C96.735 100 99.998 96.713 99.998 92.65z" data-fill-palette-color="accent"></path><path fill="#e0dbc6" d="M42.542 10.74C45.841 20.639 37.314 23.28 37.314 23.28L37.275 23.341C37.361 23.197 39.34 19.727 36.964 12.599 33.665 2.7 42.192 0.06 42.192 0.06L42.231 0C42.144 0.143 40.167 3.615 42.542 10.74" data-fill-palette-color="accent"></path><path fill="#e0dbc6" d="M52.787 10.74C56.085 20.639 47.559 23.28 47.559 23.28L47.52 23.341C47.605 23.197 49.584 19.727 47.209 12.599 43.909 2.7 52.438 0.06 52.438 0.06L52.478 0C52.39 0.143 50.412 3.615 52.787 10.74" data-fill-palette-color="accent"></path><path fill="#e0dbc6" d="M63.032 10.74C66.331 20.639 57.805 23.28 57.805 23.28L57.766 23.341C57.851 23.197 59.83 19.727 57.455 12.599 54.156 2.7 62.684 0.06 62.684 0.06L62.723 0C62.636 0.143 60.658 3.615 63.032 10.74" data-fill-palette-color="accent"></path><path fill="#e0dbc6" d="M22.069 29.18V76.218C22.069 82.718 27.329 87.977 33.828 87.977H66.168C72.667 87.977 77.927 82.718 77.927 76.218V29.18zM69.107 74.748A1.471 1.471 0 0 1 66.167 74.748V36.529A1.47 1.47 0 1 1 69.107 36.529z" data-fill-palette-color="accent"></path></svg></g></svg></g></svg></g></svg></g></svg></g><g></g></svg></g><defs></defs></svg><rect width="95.47909038" height="95.481" fill="none" stroke="none" visibility="hidden"></rect></g></svg></g></svg>